<svg width="24" height="24" viewBox="0 0 24 24" fill="none" xmlns="http://www.w3.org/2000/svg">
<mask id="mask0_761_6776" style="mask-type:alpha" maskUnits="userSpaceOnUse" x="0" y="0" width="24" height="24">
<rect width="24" height="24" fill="#D9D9D9"/>
</mask>
<g mask="url(#mask0_761_6776)">
</g>
<g clip-path="url(#clip0_761_6776)">
<path d="M14.1774 8.14785C14.3315 8.27867 14.4754 8.41865 14.6172 8.56249C14.6465 8.59139 14.6759 8.6203 14.706 8.65008C15.3628 9.33801 15.6405 10.2846 15.6329 11.2187C15.6031 12.2083 15.172 13.1031 14.468 13.7866C14.3399 13.9038 14.2149 14.013 14.0704 14.1094C14.1044 14.1278 14.1384 14.1463 14.1735 14.1654C14.499 14.345 14.7941 14.542 15.086 14.7734C15.12 14.7998 15.154 14.8262 15.189 14.8534C15.941 15.4749 16.4216 16.5062 16.5224 17.4625C16.5425 17.7417 16.5444 18.0214 16.546 18.3013C16.5463 18.3319 16.5466 18.3626 16.5469 18.3942C16.5476 18.4827 16.5474 18.5712 16.5469 18.6597C16.5471 18.6864 16.5473 18.713 16.5476 18.7405C16.5446 18.9454 16.4866 19.0639 16.3555 19.2168C16.2099 19.3382 16.0252 19.3104 15.8466 19.3102C15.8122 19.3103 15.7778 19.3104 15.7423 19.3105C15.6266 19.3109 15.5108 19.3109 15.395 19.311C15.3122 19.3112 15.2293 19.3114 15.1465 19.3116C14.9212 19.3121 14.6958 19.3123 14.4705 19.3125C14.3298 19.3126 14.1891 19.3128 14.0484 19.3129C13.6085 19.3135 13.1686 19.3139 12.7286 19.314C12.2203 19.3142 11.712 19.3149 11.2037 19.316C10.8111 19.3168 10.4184 19.3172 10.0258 19.3173C9.79118 19.3173 9.55654 19.3176 9.3219 19.3183C9.10125 19.3189 8.8806 19.319 8.65995 19.3186C8.5789 19.3186 8.49785 19.3188 8.4168 19.3192C8.30628 19.3197 8.19578 19.3194 8.08526 19.319C8.03699 19.3195 8.03699 19.3195 7.98774 19.32C7.80737 19.3184 7.69 19.3 7.54693 19.1875C7.40167 19.0148 7.3677 18.8759 7.3713 18.6559C7.37119 18.6277 7.37108 18.5996 7.37097 18.5706C7.37095 18.48 7.37217 18.3894 7.37359 18.2988C7.37386 18.268 7.37412 18.2371 7.3744 18.2053C7.38424 17.1112 7.62448 16.0809 8.36724 15.2422C8.38738 15.2165 8.40752 15.1908 8.42828 15.1644C8.80296 14.6979 9.3372 14.3965 9.85162 14.1094C9.81858 14.0824 9.78555 14.0555 9.75152 14.0277C8.94836 13.3658 8.41903 12.5198 8.30727 11.4717C8.22441 10.5004 8.48664 9.56297 9.09188 8.79229C10.3275 7.33793 12.6212 6.90875 14.1774 8.14785ZM9.9688 9.26562C9.94242 9.29125 9.91603 9.31688 9.88885 9.34328C9.38334 9.86557 9.24461 10.5912 9.25484 11.2894C9.27806 11.9202 9.55509 12.4719 9.9688 12.9375C9.99046 12.9624 10.0121 12.9872 10.0344 13.0129C10.4633 13.4745 11.1276 13.7746 11.7532 13.8094C12.5383 13.8355 13.2032 13.62 13.7969 13.0937C13.8209 13.0734 13.8449 13.0532 13.8696 13.0322C14.3055 12.6353 14.6211 12.0028 14.6617 11.4133C14.6933 10.6757 14.5738 9.96295 14.07 9.38714C13.9818 9.29146 13.89 9.20036 13.7969 9.10937C13.7722 9.08333 13.7474 9.0573 13.7219 9.03048C13.2212 8.53974 12.5219 8.38636 11.8465 8.39266C11.0899 8.41231 10.487 8.72758 9.9688 9.26562ZM9.12164 15.8184C8.72231 16.2812 8.46617 16.8258 8.36724 17.4297C8.36291 17.4557 8.35858 17.4817 8.35412 17.5086C8.31451 17.7971 8.32818 18.0711 8.32818 18.3672C10.7258 18.3672 13.1235 18.3672 15.5938 18.3672C15.5938 17.266 15.3718 16.4149 14.6055 15.6174C13.7704 14.8151 12.7082 14.7096 11.6056 14.7309C10.6351 14.7606 9.79748 15.1055 9.12164 15.8184Z" fill="#F9FAFB"/>
<path d="M18.6016 4.89062C18.6429 4.90522 18.6842 4.91983 18.7267 4.93487C19.6576 5.29529 20.3474 5.96688 20.7793 6.86084C21.1668 7.75363 21.1899 8.79375 20.846 9.70187C20.5759 10.3763 20.1355 10.9567 19.5391 11.375C19.6495 11.4625 19.7598 11.5271 19.8857 11.5898C20.8295 12.0977 21.5021 12.9746 21.8155 13.9902C21.9158 14.3303 21.9673 14.6464 21.9703 15.0006C21.9706 15.0371 21.9709 15.0736 21.9712 15.1112C21.9717 15.1881 21.9722 15.2649 21.9725 15.3418C21.9729 15.4203 21.9737 15.4988 21.9749 15.5774C21.9765 15.6911 21.9772 15.8048 21.9776 15.9186C21.9783 15.9536 21.9789 15.9886 21.9796 16.0247C21.9791 16.1842 21.9747 16.2738 21.8915 16.4133C21.7559 16.5365 21.6522 16.58 21.4693 16.5805C21.4336 16.5808 21.3978 16.581 21.361 16.5813C21.3026 16.5812 21.3026 16.5812 21.243 16.581C21.1811 16.5813 21.1811 16.5813 21.118 16.5816C20.9815 16.5822 20.8451 16.5821 20.7087 16.5821C20.6139 16.5822 20.5191 16.5824 20.4243 16.5826C20.2256 16.5829 20.027 16.5828 19.8283 16.5826C19.5735 16.5824 19.3188 16.5831 19.064 16.584C18.8683 16.5846 18.6726 16.5846 18.4768 16.5845C18.3829 16.5845 18.289 16.5847 18.195 16.5851C18.0637 16.5856 17.9325 16.5853 17.8012 16.5849C17.7623 16.5852 17.7234 16.5854 17.6834 16.5858C17.3497 16.5832 17.3497 16.5832 17.1953 16.4531C17.0827 16.2822 17.0527 16.1484 17.0781 15.9453C17.1612 15.7881 17.226 15.6989 17.3906 15.6328C17.4666 15.6232 17.4666 15.6232 17.5473 15.6234C17.5781 15.6233 17.6089 15.6232 17.6406 15.6231C17.674 15.6234 17.7074 15.6237 17.7419 15.6239C17.795 15.6239 17.795 15.6239 17.8493 15.6239C17.9664 15.624 18.0835 15.6246 18.2006 15.6252C18.2818 15.6253 18.363 15.6254 18.4442 15.6255C18.658 15.6258 18.8717 15.6266 19.0854 15.6274C19.3035 15.6282 19.5216 15.6286 19.7397 15.629C20.1676 15.6298 20.5955 15.6312 21.0234 15.6328C21.0189 15.4967 21.0137 15.3606 21.0083 15.2245C21.0064 15.1673 21.0064 15.1673 21.0045 15.109C20.966 14.165 20.5602 13.415 19.8784 12.7739C19.2807 12.261 18.5583 12.075 17.7886 12.0586C16.8286 12.0281 16.8286 12.0281 16.6191 11.8633C16.4783 11.7068 16.4788 11.5986 16.4812 11.3938C16.4969 11.2552 16.544 11.1919 16.6484 11.1016C16.794 11.0302 16.9047 11.0154 17.0658 11.0213C17.1082 11.0224 17.1506 11.0235 17.1943 11.0246C17.239 11.0258 17.2836 11.027 17.3296 11.0283C17.7187 11.0333 18.044 11.0211 18.4063 10.8672C18.4468 10.8502 18.4874 10.8331 18.5292 10.8156C19.1993 10.5067 19.6616 9.98368 19.9297 9.30468C20.1819 8.60078 20.1345 7.87351 19.8328 7.19088C19.7293 6.99434 19.5984 6.82218 19.4609 6.64843C19.4162 6.5868 19.4162 6.5868 19.3706 6.52392C18.9063 6.03798 18.248 5.746 17.5798 5.703C16.7809 5.6918 16.079 5.95949 15.4888 6.49707C15.3389 6.65439 15.2262 6.8442 15.1143 7.02962C15.0104 7.19556 14.9258 7.28422 14.7344 7.35156C14.545 7.37146 14.4147 7.33777 14.2656 7.21972C14.1681 7.09168 14.1272 6.97485 14.1303 6.81277C14.2512 6.23854 14.8664 5.67305 15.3255 5.3519C16.3001 4.73306 17.4875 4.49049 18.6016 4.89062Z" fill="#F9FAFB"/>
<path d="M8.8213 5.52539C9.22312 5.86766 9.53744 6.25455 9.77345 6.72656C9.79103 6.95953 9.75284 7.08065 9.60407 7.25726C9.52448 7.32489 9.47372 7.33492 9.37061 7.34667C9.34176 7.3506 9.31291 7.35453 9.28318 7.35858C9.14878 7.34872 9.0669 7.30604 8.95313 7.23437C8.87424 7.13412 8.87424 7.13412 8.80421 7.01709C8.40049 6.38322 7.85579 5.97336 7.13428 5.75488C6.41343 5.59564 5.67761 5.72258 5.04688 6.10156C4.92246 6.18549 4.80806 6.27601 4.69532 6.375C4.65567 6.40914 4.65567 6.40914 4.61521 6.44397C4.19047 6.83654 3.86889 7.44751 3.82965 8.03112C3.8162 8.82598 3.91696 9.53755 4.47559 10.1445C4.54712 10.2184 4.62047 10.2887 4.69532 10.3594C4.72578 10.3886 4.75625 10.4179 4.78764 10.448C5.34527 10.9382 5.99827 11.0382 6.71368 11.0169C7.13382 11.0099 7.13382 11.0099 7.31251 11.1406C7.42117 11.2516 7.44731 11.3332 7.44923 11.4873C7.44477 11.6246 7.43067 11.7142 7.34669 11.8242C7.06015 12.0734 6.6496 12.0413 6.28813 12.0484C5.83928 12.0583 5.43431 12.0896 5.00782 12.2344C4.96688 12.248 4.92594 12.2617 4.88377 12.2757C4.15547 12.5487 3.53906 13.1318 3.2135 13.8369C3.01888 14.2925 2.92898 14.7318 2.91309 15.2275C2.91158 15.2668 2.91007 15.306 2.90852 15.3464C2.90488 15.4419 2.90153 15.5373 2.89844 15.6328C2.94344 15.6325 2.98843 15.6321 3.03478 15.6318C3.45895 15.6286 3.88311 15.6262 4.30728 15.6247C4.52535 15.6239 4.74341 15.6228 4.96147 15.621C5.17195 15.6193 5.38241 15.6184 5.59289 15.618C5.67316 15.6177 5.75343 15.6171 5.83369 15.6163C5.9462 15.6152 6.05866 15.615 6.17117 15.6151C6.2043 15.6145 6.23742 15.6139 6.27155 15.6134C6.48098 15.6148 6.59895 15.6506 6.76563 15.7891C6.86683 15.9225 6.85779 16.0559 6.84376 16.2187C6.79633 16.3486 6.75602 16.4284 6.65007 16.5174C6.47483 16.5954 6.31175 16.587 6.12195 16.5861C6.06018 16.5865 6.06018 16.5865 5.99716 16.5869C5.86111 16.5876 5.72508 16.5875 5.58903 16.5872C5.49441 16.5874 5.39979 16.5876 5.30517 16.5879C5.10686 16.5882 4.90857 16.5881 4.71026 16.5877C4.45618 16.5873 4.20211 16.5881 3.94802 16.5892C3.75262 16.5899 3.55722 16.5899 3.36182 16.5897C3.26814 16.5897 3.17446 16.5899 3.08078 16.5904C2.94978 16.591 2.81881 16.5906 2.68781 16.5899C2.64914 16.5903 2.61048 16.5907 2.57064 16.5911C2.32286 16.5884 2.17936 16.5544 2.00001 16.375C1.99515 16.3168 1.99295 16.2584 1.99185 16.2001C1.9911 16.1627 1.99035 16.1254 1.98957 16.0869C1.9873 15.9125 1.98538 15.7382 1.98419 15.5638C1.98335 15.4728 1.98203 15.3818 1.98018 15.2908C1.95723 14.1515 2.26891 13.2527 3.01563 12.3906C3.04076 12.3615 3.06589 12.3324 3.09177 12.3024C3.44847 11.9202 3.90715 11.624 4.38282 11.4141C4.2919 11.3201 4.20092 11.2302 4.10129 11.1454C3.39313 10.5398 2.92399 9.65978 2.85067 8.72478C2.8057 7.59029 3.09921 6.65732 3.86616 5.80325C5.15103 4.42948 7.37869 4.38916 8.8213 5.52539Z" fill="#F9FAFB"/>
</g>
<defs>
<clipPath id="clip0_761_6776">
<rect width="20" height="20" fill="white" transform="translate(2 2)"/>
</clipPath>
</defs>
</svg>
