<svg width="24" height="24" viewBox="0 0 24 24" fill="none" xmlns="http://www.w3.org/2000/svg">
<mask id="mask0_761_6769" style="mask-type:alpha" maskUnits="userSpaceOnUse" x="0" y="0" width="24" height="24">
<rect width="24" height="24" fill="#D9D9D9"/>
</mask>
<g mask="url(#mask0_761_6769)">
</g>
<g clip-path="url(#clip0_761_6769)">
<path d="M18.9285 3.92673C19.5205 4.39504 19.8867 5.04785 19.9956 5.79395C20.0548 6.52868 19.8887 7.26466 19.4165 7.84473C19.2487 8.03617 19.0728 8.20722 18.875 8.36719C18.9151 8.38849 18.9552 8.40979 18.9966 8.43173C19.3367 8.6155 19.6425 8.80837 19.9297 9.07031C19.9596 9.09705 19.9895 9.12379 20.0203 9.15134C20.7066 9.79821 21.1549 10.7443 21.2187 11.6875C21.223 11.8568 21.2224 12.026 21.2212 12.1953C21.221 12.2405 21.2208 12.2857 21.2206 12.3322C21.2202 12.4428 21.2195 12.5534 21.2187 12.6641C21.2739 12.6607 21.2739 12.6607 21.3301 12.6572C21.7777 12.641 21.7777 12.641 21.917 12.7373C22.0336 12.9089 22.0317 13.0475 22 13.25C21.9417 13.3886 21.8614 13.5068 21.7755 13.6298C21.7522 13.6647 21.7289 13.6997 21.7048 13.7356C21.6291 13.8486 21.5521 13.9607 21.4751 14.0728C21.4221 14.1512 21.3693 14.2296 21.3165 14.3081C21.1893 14.4969 21.0612 14.6851 20.9326 14.873C20.8493 14.9949 20.7665 15.1173 20.6839 15.2397C20.5837 15.388 20.483 15.5358 20.3819 15.6835C20.1419 16.0343 19.9039 16.3865 19.666 16.7388C19.6418 16.7746 19.6176 16.8104 19.5927 16.8473C19.2023 17.4258 18.8171 18.0074 18.4341 18.5906C17.9539 19.3217 17.4657 20.0473 16.975 20.7714C16.956 20.7995 16.9369 20.8276 16.9173 20.8566C16.8988 20.8838 16.8803 20.9109 16.8612 20.9389C16.8212 20.9987 16.7821 21.0592 16.7437 21.12C16.7236 21.1516 16.7035 21.1832 16.6828 21.2157C16.656 21.2586 16.656 21.2586 16.6287 21.3025C16.5602 21.3875 16.5155 21.4133 16.414 21.4531C16.3039 21.463 16.3039 21.463 16.1739 21.4632C16.1243 21.4634 16.0747 21.4637 16.0236 21.4639C15.9685 21.4638 15.9134 21.4637 15.8582 21.4636C15.7998 21.4637 15.7413 21.4639 15.6828 21.4641C15.5218 21.4646 15.3609 21.4646 15.2 21.4645C15.0265 21.4645 14.853 21.4649 14.6795 21.4653C14.3396 21.4659 13.9996 21.4661 13.6597 21.4662C13.3834 21.4662 13.1072 21.4664 12.8309 21.4666C12.0482 21.4673 11.2654 21.4677 10.4827 21.4676C10.4405 21.4676 10.3982 21.4676 10.3548 21.4676C10.3125 21.4676 10.2702 21.4676 10.2267 21.4676C9.54139 21.4676 8.8561 21.4683 8.17082 21.4694C7.4676 21.4705 6.76438 21.4711 6.06116 21.471C5.66619 21.471 5.27121 21.4712 4.87623 21.472C4.54 21.4727 4.20377 21.4729 3.86754 21.4724C3.69591 21.4721 3.5243 21.4721 3.35268 21.4728C3.19565 21.4734 3.03863 21.4733 2.8816 21.4726C2.82472 21.4725 2.76783 21.4727 2.71095 21.4731C2.63377 21.4736 2.55657 21.4731 2.47938 21.4726C2.43647 21.4726 2.39355 21.4726 2.34934 21.4726C2.20706 21.4485 2.14186 21.3961 2.03903 21.2969C1.97145 21.1617 1.98108 21.015 1.99996 20.8672C2.08254 20.7305 2.12174 20.6834 2.2734 20.6328C2.35407 20.6296 2.43483 20.6286 2.51556 20.629C2.56277 20.6291 2.60997 20.6293 2.65861 20.6294C2.70793 20.6297 2.75725 20.63 2.80807 20.6304C2.88273 20.6306 2.88273 20.6306 2.9589 20.6309C3.08197 20.6314 3.20503 20.632 3.32809 20.6328C3.32727 20.591 3.32645 20.5491 3.32561 20.506C3.3002 19.0799 3.41277 17.7631 4.34371 16.6094C4.36781 16.5791 4.36781 16.5791 4.39239 16.5482C4.94132 15.8621 5.60557 15.354 6.41403 15.0078C6.4527 15.0078 6.49137 15.0078 6.53121 15.0078C6.53121 14.982 6.53121 14.9563 6.53121 14.9297C6.50352 14.9202 6.47582 14.9108 6.44729 14.901C5.76097 14.5964 5.34427 13.8233 5.07385 13.1646C4.76401 12.3111 4.84958 11.3789 5.20309 10.5547C5.33897 10.266 5.50724 10.0181 5.7109 9.77344C5.72928 9.74982 5.74766 9.72621 5.7666 9.70188C6.28056 9.06051 7.13424 8.67798 7.93373 8.57137C8.87436 8.46946 9.79836 8.72904 10.54 9.31587C11.2603 9.90909 11.6982 10.7241 11.8047 11.6484C11.8645 12.6516 11.6052 13.5716 10.9454 14.3374C10.7594 14.545 10.5566 14.7146 10.3249 14.8702C10.2379 14.923 10.2379 14.923 10.2031 15.0078C10.2482 15.0199 10.2933 15.032 10.3398 15.0444C10.794 15.1966 11.2136 15.4744 11.5703 15.7891C11.6022 15.8163 11.6341 15.8435 11.667 15.8716C12.7559 16.8206 13.2771 18.0409 13.4062 19.4609C13.4062 19.8477 13.4062 20.2344 13.4062 20.6328C14.2828 20.6328 15.1593 20.6328 16.0625 20.6328C16.0882 20.5684 16.114 20.5039 16.1406 20.4375C16.1995 20.3438 16.2594 20.2524 16.322 20.1613C16.3405 20.1341 16.3589 20.1069 16.378 20.0789C16.4182 20.0196 16.4585 19.9604 16.499 19.9013C16.5643 19.8056 16.6294 19.7098 16.6945 19.6139C16.7876 19.4769 16.8807 19.3399 16.9739 19.2029C17.2079 18.8589 17.441 18.5143 17.6738 18.1694C17.6973 18.1346 17.7209 18.0997 17.7451 18.0638C18.1297 17.4941 18.509 16.9212 18.8863 16.3467C19.3012 15.7148 19.7222 15.0873 20.1464 14.4616C20.1691 14.4281 20.1919 14.3945 20.2153 14.3599C20.2571 14.2982 20.2989 14.2366 20.3408 14.175C20.4497 14.0143 20.5556 13.8521 20.6596 13.6882C20.6839 13.6499 20.7083 13.6116 20.7333 13.5722C20.7517 13.5432 20.7701 13.5142 20.789 13.4844C20.7465 13.4845 20.704 13.4846 20.6602 13.4847C19.6268 13.4873 18.5934 13.4892 17.5599 13.4904C17.0602 13.4911 16.5604 13.4919 16.0606 13.4932C15.6251 13.4944 15.1896 13.4951 14.7541 13.4954C14.5234 13.4956 14.2927 13.4959 14.0621 13.4968C13.8451 13.4976 13.628 13.4978 13.411 13.4976C13.3313 13.4977 13.2516 13.4979 13.1718 13.4983C13.0631 13.4989 12.9544 13.4988 12.8457 13.4985C12.814 13.4988 12.7823 13.4992 12.7497 13.4995C12.5277 13.4977 12.4025 13.451 12.2417 13.3013C12.1735 13.1686 12.1687 13.0426 12.1953 12.8984C12.2653 12.7887 12.3132 12.7223 12.4297 12.6641C12.4948 12.6608 12.5601 12.6599 12.6253 12.6602C12.6638 12.6604 12.7023 12.6605 12.742 12.6606C12.7823 12.661 12.8227 12.6613 12.8642 12.6616C12.9252 12.6619 12.9252 12.6619 12.9874 12.6622C13.0879 12.6626 13.1885 12.6633 13.289 12.6641C13.2884 12.6354 13.2878 12.6067 13.2872 12.5772C13.2632 11.2857 13.4903 10.199 14.4026 9.22815C14.7342 8.88676 15.1205 8.6047 15.5547 8.40625C15.5804 8.40625 15.6062 8.40625 15.6328 8.40625C15.6328 8.38047 15.6328 8.35469 15.6328 8.32813C15.6118 8.31926 15.5909 8.3104 15.5693 8.30127C15.0899 8.03632 14.7615 7.47375 14.6072 6.96201C14.397 6.19687 14.4785 5.44057 14.8515 4.73438C15.2604 4.08667 15.8695 3.62759 16.6157 3.44058C17.4295 3.26957 18.2562 3.44494 18.9285 3.92673ZM15.7109 4.96875C15.4194 5.34074 15.2992 5.82929 15.3203 6.29688C15.4099 6.90755 15.678 7.36687 16.1748 7.73731C16.6013 8.01945 17.0852 8.11241 17.5883 8.03668C18.1177 7.91952 18.5624 7.63598 18.8676 7.18555C19.1518 6.70245 19.2282 6.20423 19.1226 5.65494C18.9541 5.09407 18.604 4.68209 18.0975 4.4028C17.2502 3.98927 16.3041 4.27081 15.7109 4.96875ZM14.9687 9.8125C14.1933 10.6408 14.1093 11.5434 14.1093 12.6641C16.1847 12.6641 18.2601 12.6641 20.3984 12.6641C20.3984 11.4809 20.2591 10.6056 19.4389 9.73438C18.1748 8.50094 16.2033 8.60138 14.9687 9.8125ZM6.37496 10.2813C5.83838 10.9466 5.69139 11.6298 5.74996 12.4688C5.83503 13.1228 6.22705 13.6636 6.71462 14.0827C7.24055 14.4867 7.89405 14.7226 8.56246 14.6563C9.3307 14.5484 9.93158 14.2346 10.4375 13.6406C10.8638 13.0486 11.0639 12.3891 10.9648 11.6613C10.8383 10.957 10.505 10.3055 9.90484 9.88492C8.73805 9.13157 7.33907 9.27022 6.37496 10.2813ZM5.2275 16.8061C4.22173 17.942 4.1484 19.1066 4.1484 20.6328C6.91989 20.6328 9.69137 20.6328 12.5468 20.6328C12.5468 19.0029 12.4258 17.7761 11.2993 16.6362C11.0924 16.4318 10.8818 16.2536 10.6328 16.1016C10.5977 16.0789 10.5627 16.0562 10.5266 16.0329C8.80206 14.962 6.60146 15.3822 5.2275 16.8061Z" fill="#2A2B67"/>
<path d="M7.77471 2.53995C7.81322 2.5397 7.85174 2.53944 7.89143 2.53918C8.01874 2.53841 8.14604 2.53795 8.27335 2.53756C8.31698 2.5374 8.3606 2.53724 8.40555 2.53708C8.63657 2.53626 8.86759 2.53571 9.09862 2.53534C9.33639 2.53491 9.57415 2.53356 9.81192 2.53201C9.99547 2.53099 10.179 2.53066 10.3626 2.53052C10.4502 2.53033 10.5378 2.52988 10.6254 2.52915C11.3008 2.5239 11.7938 2.55006 12.3012 3.04125C12.5824 3.34386 12.7085 3.68445 12.71 4.0912C12.7103 4.12063 12.7106 4.15006 12.7108 4.18037C12.7116 4.2775 12.7121 4.37463 12.7124 4.47176C12.7126 4.50499 12.7128 4.53822 12.7129 4.57246C12.7137 4.7482 12.7143 4.92395 12.7147 5.09969C12.7151 5.28114 12.7164 5.46257 12.718 5.64401C12.719 5.78365 12.7193 5.92329 12.7195 6.06293C12.7197 6.12982 12.7201 6.19671 12.7208 6.2636C12.7218 6.3572 12.7218 6.45075 12.7215 6.54436C12.7222 6.58567 12.7222 6.58567 12.723 6.62782C12.721 6.81425 12.6786 6.90809 12.5469 7.03906C12.4098 7.10762 12.2671 7.09622 12.1172 7.07812C11.9877 7.03425 11.8709 6.97253 11.751 6.90722C11.7215 6.89186 11.6921 6.8765 11.6617 6.86068C11.6305 6.84432 11.5992 6.82795 11.567 6.81109C11.5311 6.79298 11.4953 6.77487 11.4584 6.75622C11.3647 6.70362 11.2872 6.65187 11.2022 6.5878C10.5745 6.14978 9.79524 6.24954 9.06489 6.26105C8.77029 6.26538 8.47568 6.2666 8.18106 6.26727C8.07919 6.26786 7.97739 6.26957 7.87554 6.27144C7.42572 6.27673 7.05702 6.22889 6.68751 5.94531C6.64884 5.91711 6.61016 5.88891 6.57032 5.85986C6.24279 5.57875 6.11038 5.18978 6.06251 4.77343C6.0291 4.11668 6.08496 3.62765 6.44337 3.06445C6.83215 2.67566 7.23914 2.54151 7.77471 2.53995ZM7.08302 3.64062C6.90302 3.89473 6.90759 4.08817 6.90723 4.39501C6.90628 4.43859 6.90532 4.48218 6.90434 4.52708C6.90327 4.82664 6.93442 5.00344 7.13779 5.23074C7.36439 5.40837 7.5358 5.44893 7.81991 5.44251C7.88399 5.44176 7.94806 5.44102 8.01214 5.44028C8.04599 5.43974 8.07984 5.43921 8.11472 5.43866C8.2963 5.43613 8.47789 5.43596 8.65948 5.43536C8.88953 5.43444 9.11952 5.43289 9.34955 5.4288C10.9717 5.40134 10.9717 5.40134 11.6934 5.89854C11.7693 5.95195 11.7693 5.95195 11.8828 5.98437C11.8868 5.70081 11.8895 5.41727 11.8914 5.13369C11.8922 5.0373 11.8933 4.94092 11.8946 4.84454C11.8965 4.70568 11.8974 4.56684 11.8981 4.42797C11.8989 4.38515 11.8997 4.34234 11.9005 4.29822C11.9006 4.0025 11.8635 3.77916 11.6471 3.5602C11.6209 3.54243 11.5948 3.52465 11.5679 3.50634C11.5416 3.48786 11.5154 3.46938 11.4884 3.45034C11.3138 3.34674 11.137 3.36086 10.9407 3.36027C10.9042 3.36001 10.8678 3.35975 10.8302 3.35949C10.7093 3.35872 10.5884 3.35826 10.4676 3.35787C10.4056 3.35763 10.4056 3.35763 10.3424 3.35739C10.1237 3.35658 9.90503 3.35602 9.68635 3.35565C9.46073 3.35522 9.23512 3.35388 9.00951 3.35232C8.83582 3.3513 8.66213 3.35098 8.48844 3.35084C8.40529 3.35065 8.32214 3.35019 8.239 3.34947C8.12241 3.34851 8.00586 3.34855 7.88926 3.34882C7.85514 3.34832 7.82102 3.34782 7.78586 3.34731C7.50412 3.34968 7.27174 3.42312 7.08302 3.64062Z" fill="#2A2B67"/>
</g>
<defs>
<clipPath id="clip0_761_6769">
<rect width="20" height="20" fill="white" transform="translate(2 2)"/>
</clipPath>
</defs>
</svg>
