<svg width="24" height="24" viewBox="0 0 24 24" fill="none" xmlns="http://www.w3.org/2000/svg">
<mask id="mask0_94_3249" style="mask-type:alpha" maskUnits="userSpaceOnUse" x="0" y="0" width="24" height="24">
<rect width="24" height="24" fill="#D9D9D9"/>
</mask>
<g mask="url(#mask0_94_3249)">
</g>
<g clip-path="url(#clip0_94_3249)">
<path d="M12.9643 2.26122C13.3447 2.53412 13.5905 2.90394 13.6796 3.36718C13.6829 3.47232 13.6842 3.5764 13.6834 3.68151C13.6833 3.7267 13.6833 3.7267 13.6833 3.7728C13.683 3.86871 13.6826 3.96463 13.6821 4.06054C13.6819 4.12569 13.6817 4.19085 13.6815 4.256C13.6811 4.41546 13.6804 4.57491 13.6796 4.73437C13.7011 4.73842 13.7226 4.74248 13.7448 4.74665C13.9645 4.79131 14.1616 4.85683 14.3656 4.94921C14.3959 4.96284 14.4261 4.97647 14.4572 4.99052C15.8578 5.64038 16.9547 6.82631 17.4984 8.26922C17.7736 9.0488 17.8639 9.797 17.8671 10.6197C17.8675 10.729 17.8683 10.8384 17.8692 10.9478C17.8715 11.2585 17.8737 11.5692 17.875 11.8799C17.8758 12.0708 17.8772 12.2618 17.8789 12.4528C17.8795 12.5246 17.8798 12.5965 17.8799 12.6683C17.8832 14.3544 18.4639 15.8079 19.6379 17.0214C19.724 17.1066 19.8156 17.1849 19.9076 17.2637C20.1737 17.4969 20.334 17.7884 20.3678 18.1447C20.3818 18.5184 20.2888 18.8199 20.0479 19.1077C19.8052 19.3523 19.5317 19.5016 19.184 19.5094C19.1039 19.5096 19.0238 19.5094 18.9438 19.5089C18.8999 19.5089 18.8561 19.5089 18.8109 19.5089C18.6663 19.5088 18.5218 19.5082 18.3772 19.5076C18.2768 19.5075 18.1764 19.5074 18.076 19.5073C17.8391 19.507 17.6021 19.5064 17.3651 19.5056C17.0952 19.5047 16.8253 19.5043 16.5554 19.5039C16.0005 19.5031 15.4455 19.5017 14.8905 19.5C14.8882 19.5238 14.8858 19.5475 14.8833 19.572C14.88 19.6034 14.8767 19.6348 14.8733 19.6671C14.8685 19.7136 14.8685 19.7136 14.8636 19.7611C14.7861 20.3387 14.4275 20.8155 14.0312 21.2187C14.0072 21.2432 13.9832 21.2677 13.9585 21.2929C13.3468 21.8707 12.5833 22.021 11.7698 22.0107C11.1312 21.9909 10.5218 21.7218 10.0468 21.2969C10.018 21.2717 9.9893 21.2466 9.95967 21.2207C9.52754 20.8183 9.18854 20.2624 9.12669 19.6674C9.12338 19.6359 9.12006 19.6045 9.11664 19.5722C9.11301 19.5364 9.11301 19.5364 9.1093 19.5C9.08651 19.5001 9.06372 19.5003 9.04023 19.5004C8.4843 19.5039 7.92836 19.5065 7.37241 19.5081C7.10355 19.5089 6.8347 19.51 6.56585 19.5118C6.30624 19.5135 6.04664 19.5144 5.78702 19.5148C5.68813 19.5151 5.58924 19.5157 5.49035 19.5165C5.3515 19.5177 5.21268 19.5178 5.07383 19.5177C5.03322 19.5183 4.99262 19.5189 4.95079 19.5194C4.57032 19.5173 4.26177 19.4114 3.9825 19.148C3.73438 18.8667 3.62132 18.5294 3.63094 18.1568C3.67642 17.6737 3.94277 17.3835 4.2924 17.0732C5.33598 16.1178 6.03923 14.7053 6.10541 13.2829C6.10721 13.1972 6.10797 13.1116 6.10827 13.0258C6.10853 12.9937 6.10879 12.9616 6.10906 12.9285C6.1096 12.8593 6.11007 12.7901 6.11046 12.7209C6.11111 12.6108 6.11202 12.5006 6.113 12.3905C6.11574 12.0775 6.1181 11.7645 6.12011 11.4515C6.12137 11.2594 6.12298 11.0672 6.12481 10.8751C6.12542 10.8026 6.12591 10.7301 6.12625 10.6576C6.13435 8.94996 6.62859 7.46525 7.82024 6.21874C7.84637 6.19014 7.8725 6.16154 7.89943 6.13207C8.47143 5.52705 9.23182 5.09534 10.0077 4.81249C10.043 4.79759 10.0782 4.78268 10.1145 4.76733C10.203 4.73437 10.203 4.73437 10.3202 4.73437C10.3194 4.69541 10.3186 4.65645 10.3178 4.6163C10.3149 4.46954 10.3131 4.32278 10.3117 4.17599C10.3109 4.11288 10.3098 4.04977 10.3084 3.98667C10.2961 3.39966 10.3746 2.90938 10.789 2.46264C11.3891 1.8882 12.268 1.83755 12.9643 2.26122ZM11.3056 3.21185C11.1956 3.38922 11.1699 3.56283 11.172 3.76849C11.1722 3.80914 11.1724 3.8498 11.1726 3.89168C11.1733 3.94257 11.174 3.99346 11.1747 4.04589C11.1763 4.20864 11.178 4.37138 11.1796 4.53906C11.721 4.53906 12.2624 4.53906 12.8202 4.53906C12.8251 4.29856 12.8251 4.29856 12.83 4.05322C12.8321 3.97848 12.8321 3.97848 12.8343 3.90224C12.8373 3.59662 12.8116 3.33061 12.596 3.09873C12.3829 2.90222 12.1931 2.84003 11.9046 2.84731C11.6423 2.87895 11.4724 3.01523 11.3056 3.21185ZM8.4843 6.80468C8.46124 6.82522 8.43817 6.84577 8.41441 6.86694C7.46714 7.74687 7.05516 9.06525 6.99992 10.3203C6.99407 10.5347 6.9938 10.7492 6.99334 10.9637C6.99305 11.0681 6.99243 11.1726 6.99172 11.2771C6.9897 11.5737 6.9878 11.8704 6.98719 12.167C6.98336 13.784 6.98336 13.784 6.80461 14.4609C6.79588 14.4948 6.78715 14.5286 6.77815 14.5635C6.43161 15.8914 5.69057 17.0551 4.65083 17.9489C4.5405 18.05 4.53944 18.0882 4.52678 18.2427C4.52796 18.3723 4.53875 18.4059 4.61223 18.521C4.74585 18.6507 4.82545 18.6456 5.00815 18.6459C5.08372 18.6461 5.08372 18.6461 5.16082 18.6464C5.21726 18.6464 5.2737 18.6464 5.33014 18.6464C5.38968 18.6465 5.44923 18.6466 5.50877 18.6468C5.67301 18.6472 5.83724 18.6473 6.00148 18.6474C6.17837 18.6476 6.35526 18.648 6.53215 18.6483C6.95962 18.6491 7.38709 18.6495 7.81456 18.6498C8.01571 18.65 8.21685 18.6502 8.41799 18.6504C9.08633 18.6511 9.75467 18.6516 10.423 18.6519C10.5965 18.652 10.7701 18.6521 10.9436 18.6521C10.9867 18.6522 11.0298 18.6522 11.0743 18.6522C11.7733 18.6525 12.4724 18.6535 13.1714 18.6548C13.8886 18.6561 14.6058 18.6568 15.3229 18.6569C15.7258 18.657 16.1287 18.6573 16.5316 18.6583C16.8746 18.6592 17.2176 18.6595 17.5606 18.6591C17.7357 18.6589 17.9108 18.659 18.0859 18.6598C18.2462 18.6605 18.4064 18.6604 18.5666 18.6598C18.6246 18.6597 18.6827 18.6599 18.7407 18.6604C18.8194 18.6609 18.8982 18.6605 18.977 18.66C19.0426 18.66 19.0426 18.66 19.1096 18.6601C19.2532 18.6362 19.3182 18.5846 19.4218 18.4844C19.4857 18.3566 19.4866 18.2313 19.4609 18.0937C19.3675 17.9319 19.223 17.8158 19.0824 17.6958C18.1719 16.9131 17.5684 15.7935 17.2416 14.6514C17.2309 14.6144 17.2309 14.6144 17.22 14.5768C17.0665 14.0037 17.0218 13.4356 17.0217 12.8453C17.0213 12.7748 17.0208 12.7043 17.0202 12.6338C17.0188 12.45 17.018 12.2661 17.0174 12.0823C17.0431 10.0327 17.0431 10.0327 16.453 8.09374C16.4342 8.05487 16.4153 8.016 16.3958 7.97594C16.1694 7.53691 15.8523 7.16282 15.5155 6.80468C15.495 6.78162 15.4745 6.75856 15.4533 6.7348C14.6992 5.92304 13.4872 5.41166 12.3909 5.35313C10.8744 5.29818 9.5934 5.76174 8.4843 6.80468ZM9.96867 19.5C10.1532 20.115 10.432 20.5758 11.0017 20.8953C11.5049 21.1476 12.0352 21.2349 12.5834 21.0747C13.1187 20.8848 13.5565 20.5495 13.8359 20.0469C13.9685 19.7825 13.9685 19.7825 14.0312 19.5C12.6905 19.5 11.3499 19.5 9.96867 19.5Z" fill="black"/>
</g>
<defs>
<clipPath id="clip0_94_3249">
<rect width="20" height="20" fill="white" transform="translate(2 2)"/>
</clipPath>
</defs>
</svg>
