<svg width="24" height="24" viewBox="0 0 24 24" fill="none" xmlns="http://www.w3.org/2000/svg">
<mask id="mask0_87_1988" style="mask-type:alpha" maskUnits="userSpaceOnUse" x="0" y="0" width="24" height="24">
<rect width="24" height="24" fill="#D9D9D9"/>
</mask>
<g mask="url(#mask0_87_1988)">
</g>
<path d="M4.39395 14.1259C4.56278 14.2643 4.63592 14.3655 4.69531 14.5781C4.70514 14.6993 4.70514 14.6993 4.70529 14.8298C4.70556 14.8789 4.70583 14.9281 4.70611 14.9788C4.70608 15.0048 4.70606 15.0308 4.70603 15.0576C4.70599 15.14 4.7065 15.2223 4.70716 15.3047C4.70896 15.5388 4.70993 15.7729 4.71019 16.0069C4.71039 16.1506 4.71134 16.2942 4.71274 16.4378C4.71312 16.492 4.71322 16.5462 4.71301 16.6004C4.71085 17.1863 4.84092 17.6843 5.23196 18.1325C5.89205 18.7686 6.77321 18.6912 7.62057 18.6898C7.72675 18.6899 7.83294 18.69 7.93912 18.6902C8.19652 18.6906 8.45392 18.6905 8.71132 18.6903C8.9207 18.6901 9.13007 18.6901 9.33944 18.6901C9.36935 18.6902 9.39925 18.6902 9.43007 18.6902C9.49084 18.6902 9.55161 18.6902 9.61239 18.6903C10.181 18.6905 10.7496 18.6902 11.3182 18.6898C11.8051 18.6895 12.292 18.6895 12.7788 18.6899C13.3455 18.6903 13.9122 18.6905 14.4789 18.6902C14.5395 18.6902 14.6 18.6902 14.6606 18.6901C14.7052 18.6901 14.7052 18.6901 14.7508 18.6901C14.9597 18.69 15.1686 18.6902 15.3775 18.6903C15.6324 18.6906 15.8873 18.6905 16.1422 18.6901C16.272 18.6899 16.4018 18.6898 16.5316 18.6901C17.7404 18.7126 17.7404 18.7126 18.768 18.1325C19.1588 17.6846 19.2894 17.1872 19.2858 16.6016C19.2853 16.5195 19.2858 16.4373 19.2864 16.3552C19.2875 16.2105 19.2877 16.0659 19.2876 15.9212C19.2875 15.689 19.2881 15.4568 19.2898 15.2246C19.2902 15.1441 19.2898 15.0637 19.2895 14.9832C19.2911 14.6888 19.2966 14.4677 19.4808 14.2281C19.6321 14.0958 19.7555 14.0338 19.9582 14.0248C20.1709 14.0402 20.3329 14.1033 20.4741 14.2656C20.5918 14.4368 20.599 14.5544 20.6007 14.758C20.6009 14.784 20.6012 14.8101 20.6014 14.837C20.6022 14.9234 20.6027 15.0098 20.6031 15.0962C20.6032 15.1259 20.6034 15.1556 20.6035 15.1862C20.6044 15.3439 20.6049 15.5017 20.6053 15.6594C20.6057 15.8208 20.607 15.982 20.6086 16.1433C20.6096 16.2687 20.61 16.394 20.6101 16.5193C20.6103 16.5786 20.6107 16.638 20.6115 16.6973C20.6176 17.2281 20.5476 17.7491 20.291 18.2231C20.2709 18.2616 20.2709 18.2616 20.2504 18.3009C19.8382 19.0704 19.204 19.6102 18.3694 19.867C18.059 19.9582 17.7716 19.9801 17.4483 19.9792C17.4 19.9794 17.3516 19.9796 17.3017 19.9797C17.1683 19.9801 17.0348 19.9802 16.9013 19.9801C16.7571 19.9801 16.6128 19.9805 16.4685 19.9809C16.1861 19.9815 15.9038 19.9818 15.6214 19.9818C15.3917 19.9818 15.162 19.982 14.9323 19.9822C14.2802 19.9829 13.6281 19.9833 12.976 19.9832C12.9409 19.9832 12.9058 19.9832 12.8696 19.9832C12.8169 19.9832 12.8169 19.9832 12.7631 19.9832C12.1936 19.9832 11.6242 19.9839 11.0547 19.985C10.4692 19.9862 9.88364 19.9867 9.2981 19.9866C8.9697 19.9866 8.6413 19.9868 8.31291 19.9877C8.03323 19.9884 7.75356 19.9885 7.47388 19.988C7.3314 19.9878 7.18893 19.9877 7.04645 19.9884C5.94894 19.9934 5.94894 19.9934 5.47656 19.8125C5.42657 19.7937 5.42657 19.7937 5.37557 19.7745C5.28879 19.7398 5.20769 19.6998 5.125 19.6562C5.08905 19.6379 5.05309 19.6196 5.01605 19.6007C4.29305 19.2084 3.76204 18.5552 3.52288 17.768C3.4142 17.3785 3.38352 17.0169 3.38687 16.614C3.38686 16.5532 3.38681 16.4925 3.3867 16.4318C3.38664 16.3059 3.38712 16.1801 3.38802 16.0542C3.38914 15.8934 3.38902 15.7326 3.38853 15.5717C3.38826 15.4469 3.38856 15.3221 3.38905 15.1973C3.38922 15.138 3.38924 15.0786 3.38908 15.0193C3.38897 14.9366 3.38962 14.854 3.39047 14.7713C3.39068 14.7244 3.39089 14.6776 3.3911 14.6293C3.41337 14.4392 3.47704 14.3108 3.61377 14.1777C3.86092 14.0168 4.13372 13.9639 4.39395 14.1259Z" fill="black"/>
<path d="M12.0195 4.01416C12.0546 4.0134 12.0896 4.01265 12.1257 4.01187C12.4172 4.06387 12.6272 4.33441 12.827 4.53438C12.8623 4.5694 12.8975 4.60441 12.9339 4.64049C13.0302 4.73611 13.1262 4.83197 13.2222 4.92791C13.2823 4.98792 13.3424 5.04787 13.4026 5.10781C13.6126 5.31713 13.8224 5.52666 14.0321 5.73637C14.2272 5.9315 14.4227 6.1262 14.6184 6.32069C14.7868 6.48804 14.9549 6.6557 15.1227 6.82359C15.2228 6.92371 15.323 7.0237 15.4236 7.1234C15.5356 7.23458 15.6471 7.34639 15.7585 7.45827C15.7917 7.49101 15.8249 7.52375 15.859 7.55748C16.0666 7.76725 16.1977 7.92819 16.2358 8.22803C16.2067 8.46501 16.1307 8.6254 15.9429 8.7749C15.7651 8.86947 15.6382 8.89145 15.4375 8.875C15.2032 8.7898 15.0354 8.6513 14.8636 8.47511C14.8396 8.45108 14.8155 8.42705 14.7907 8.4023C14.7122 8.32362 14.6342 8.2444 14.5562 8.16516C14.5015 8.11018 14.4467 8.05522 14.392 8.00031C14.2485 7.85629 14.1056 7.71181 13.9627 7.56722C13.8166 7.41952 13.6701 7.27226 13.5236 7.12497C13.2366 6.83635 12.9502 6.54724 12.6641 6.25781C12.664 6.30611 12.6639 6.35442 12.6639 6.40418C12.6625 7.5507 12.6603 8.69722 12.6571 9.84373C12.6567 9.98484 12.6563 10.126 12.656 10.2671C12.6558 10.3092 12.6558 10.3092 12.6557 10.3522C12.6545 10.8071 12.6539 11.262 12.6534 11.7169C12.6529 12.1836 12.6518 12.6504 12.6502 13.1171C12.6493 13.3793 12.6487 13.6415 12.6488 13.9036C12.6488 14.1503 12.6481 14.397 12.6468 14.6437C12.6465 14.7343 12.6464 14.8249 12.6466 14.9155C12.6469 15.0391 12.6462 15.1627 12.6453 15.2863C12.6456 15.3222 12.6459 15.3582 12.6462 15.3952C12.6433 15.6112 12.6126 15.7348 12.4688 15.9062C12.3196 16.048 12.1999 16.0746 12 16.082C11.8001 16.0746 11.6804 16.048 11.5312 15.9062C11.3591 15.7011 11.3526 15.5423 11.3547 15.2863C11.3544 15.2477 11.3541 15.209 11.3538 15.1692C11.353 15.0398 11.3534 14.9105 11.3537 14.7811C11.3533 14.6883 11.3529 14.5955 11.3525 14.5027C11.3515 14.277 11.3512 14.0513 11.3513 13.8256C11.3513 13.5629 11.3504 13.3002 11.3495 13.0375C11.3479 12.569 11.347 12.1005 11.3465 11.6321C11.3461 11.1771 11.3453 10.7221 11.344 10.2671C11.3439 10.225 11.3439 10.225 11.3438 10.182C11.3434 10.0413 11.343 9.90051 11.3427 9.75975C11.3394 8.59244 11.3373 7.42513 11.3359 6.25781C11.3055 6.28847 11.275 6.31913 11.2436 6.35071C10.9564 6.63947 10.669 6.92802 10.3814 7.21636C10.2336 7.36462 10.0858 7.51294 9.93821 7.66143C9.79579 7.8047 9.65318 7.94778 9.51043 8.09073C9.45598 8.14533 9.40159 8.2 9.34728 8.25473C9.27125 8.33133 9.19498 8.40768 9.11864 8.48397C9.09619 8.50671 9.07375 8.52944 9.05061 8.55286C8.86441 8.7381 8.75146 8.80819 8.48926 8.81152C8.28583 8.80756 8.16774 8.78514 8.01562 8.64062C7.88011 8.47581 7.82394 8.34681 7.82031 8.13281C7.87484 7.81427 8.0564 7.62943 8.28057 7.40972C8.31564 7.37442 8.35071 7.33913 8.38685 7.30276C8.48245 7.2066 8.57876 7.11118 8.67523 7.01589C8.77639 6.91577 8.87692 6.81503 8.97754 6.71436C9.14649 6.54553 9.31588 6.37715 9.48557 6.20906C9.68147 6.01501 9.87675 5.82034 10.0717 5.62532C10.2797 5.41719 10.4882 5.20951 10.6969 5.00196C10.7567 4.94232 10.8165 4.8826 10.8763 4.82286C10.9879 4.71144 11.1 4.60051 11.2121 4.48964C11.245 4.45665 11.278 4.42365 11.3119 4.38966C11.5254 4.17963 11.7057 4.01461 12.0195 4.01416Z" fill="black"/>
</svg>
