<svg width="24" height="24" viewBox="0 0 24 24" fill="none" xmlns="http://www.w3.org/2000/svg">
<path d="M12 12V18" stroke="white" stroke-width="2" stroke-linecap="round" stroke-linejoin="round"/>
<path d="M4.07696 10.615C4.01356 10.767 3.98868 10.9323 4.00451 11.0962C4.02035 11.2601 4.07642 11.4175 4.16774 11.5546C4.25905 11.6916 4.3828 11.8039 4.52798 11.8817C4.67317 11.9594 4.83529 12 4.99996 12H19C19.1646 12 19.3268 11.9594 19.4719 11.8817C19.6171 11.8039 19.7409 11.6916 19.8322 11.5546C19.9235 11.4175 19.9796 11.2601 19.9954 11.0962C20.0112 10.9323 19.9864 10.767 19.923 10.615L16.846 3.231C16.6941 2.8665 16.4378 2.5551 16.1093 2.33604C15.7808 2.11697 15.3948 2.00005 15 2H8.99996C8.60522 1.99997 8.21931 2.11674 7.89081 2.33562C7.56232 2.5545 7.30593 2.86569 7.15396 3.23L4.07696 10.615Z" stroke="white" stroke-width="2" stroke-linecap="round" stroke-linejoin="round"/>
<path d="M8 20C8 19.4696 8.21071 18.9609 8.58579 18.5858C8.96086 18.2107 9.46957 18 10 18H14C14.5304 18 15.0391 18.2107 15.4142 18.5858C15.7893 18.9609 16 19.4696 16 20V21C16 21.2652 15.8946 21.5196 15.7071 21.7071C15.5196 21.8946 15.2652 22 15 22H9C8.73478 22 8.48043 21.8946 8.29289 21.7071C8.10536 21.5196 8 21.2652 8 21V20Z" stroke="white" stroke-width="2" stroke-linecap="round" stroke-linejoin="round"/>
</svg>
