<svg width="54" height="54" viewBox="0 0 54 54" fill="none" xmlns="http://www.w3.org/2000/svg">
<path d="M26.9531 0C29.4375 0 31.8281 0.320313 34.125 0.960938C36.4219 1.60156 38.5625 2.50781 40.5469 3.67969C42.5469 4.85156 44.3672 6.25781 46.0078 7.89844C47.6484 9.53906 49.0547 11.3594 50.2266 13.3594C51.3984 15.3438 52.3047 17.4844 52.9453 19.7812C53.5859 22.0781 53.9062 24.4688 53.9062 26.9531C53.9062 29.4375 53.5859 31.8281 52.9453 34.125C52.3047 36.4219 51.3984 38.5703 50.2266 40.5703C49.0547 42.5547 47.6484 44.3672 46.0078 46.0078C44.3672 47.6484 42.5469 49.0547 40.5469 50.2266C38.5625 51.3984 36.4219 52.3047 34.125 52.9453C31.8281 53.5859 29.4375 53.9062 26.9531 53.9062C24.4688 53.9062 22.0781 53.5859 19.7812 52.9453C17.4844 52.3047 15.3359 51.3984 13.3359 50.2266C11.3516 49.0547 9.53906 47.6484 7.89844 46.0078C6.25781 44.3672 4.85156 42.5547 3.67969 40.5703C2.50781 38.5703 1.60156 36.4219 0.960938 34.125C0.320312 31.8281 0 29.4375 0 26.9531C0 24.4688 0.320312 22.0781 0.960938 19.7812C1.60156 17.4844 2.50781 15.3438 3.67969 13.3594C4.85156 11.3594 6.25781 9.53906 7.89844 7.89844C9.53906 6.25781 11.3516 4.85156 13.3359 3.67969C15.3359 2.50781 17.4844 1.60156 19.7812 0.960938C22.0781 0.320313 24.4688 0 26.9531 0ZM26.9531 50.5312C29.125 50.5312 31.2109 50.25 33.2109 49.6875C35.2266 49.125 37.1094 48.3281 38.8594 47.2969C40.6094 46.2812 42.1953 45.0625 43.6172 43.6406C45.0547 42.2031 46.2812 40.6094 47.2969 38.8594C48.3281 37.1094 49.125 35.2344 49.6875 33.2344C50.25 31.2188 50.5312 29.125 50.5312 26.9531C50.5312 24.7812 50.25 22.6953 49.6875 20.6953C49.125 18.6797 48.3281 16.7969 47.2969 15.0469C46.2812 13.2969 45.0547 11.7109 43.6172 10.2891C42.1953 8.85156 40.6094 7.625 38.8594 6.60938C37.1094 5.57812 35.2266 4.78125 33.2109 4.21875C31.2109 3.65625 29.125 3.375 26.9531 3.375C24.7812 3.375 22.6875 3.65625 20.6719 4.21875C18.6719 4.78125 16.7969 5.57812 15.0469 6.60938C13.2969 7.625 11.7031 8.85156 10.2656 10.2891C8.84375 11.7109 7.61719 13.2969 6.58594 15.0469C5.57031 16.7969 4.78125 18.6797 4.21875 20.6953C3.65625 22.6953 3.375 24.7812 3.375 26.9531C3.375 29.125 3.65625 31.2188 4.21875 33.2344C4.78125 35.2344 5.57031 37.1094 6.58594 38.8594C7.61719 40.6094 8.84375 42.2031 10.2656 43.6406C11.7031 45.0625 13.2969 46.2812 15.0469 47.2969C16.7969 48.3281 18.6719 49.125 20.6719 49.6875C22.6875 50.25 24.7812 50.5312 26.9531 50.5312ZM36.2109 18.5391C37.0234 18.5391 37.7891 18.6953 38.5078 19.0078C39.2266 19.3047 39.8516 19.7188 40.3828 20.25C40.9141 20.7812 41.3359 21.4062 41.6484 22.125C41.9609 22.8438 42.1172 23.6094 42.1172 24.4219V25.2656H40.4297C40.4297 24.6875 40.3203 24.1406 40.1016 23.625C39.8828 23.1094 39.5781 22.6641 39.1875 22.2891C38.8125 21.8984 38.3672 21.5938 37.8516 21.375C37.3359 21.1562 36.7891 21.0469 36.2109 21.0469C35.6172 21.0469 35.0625 21.1562 34.5469 21.375C34.0469 21.5938 33.6094 21.8984 33.2344 22.2891C32.8594 22.6641 32.5625 23.1094 32.3438 23.625C32.125 24.1406 32.0156 24.6875 32.0156 25.2656H30.3281V24.4219C30.3281 23.6094 30.4766 22.8438 30.7734 22.125C31.0859 21.4062 31.5078 20.7812 32.0391 20.25C32.5703 19.7188 33.1875 19.3047 33.8906 19.0078C34.6094 18.6953 35.3828 18.5391 36.2109 18.5391ZM17.6953 21.0469C17.1016 21.0469 16.5469 21.1562 16.0312 21.375C15.5312 21.5938 15.0859 21.8984 14.6953 22.2891C14.3203 22.6641 14.0234 23.1094 13.8047 23.625C13.5859 24.1406 13.4766 24.6875 13.4766 25.2656H11.7891V24.4219C11.7891 23.6094 11.9453 22.8438 12.2578 22.125C12.5703 21.4062 12.9922 20.7812 13.5234 20.25C14.0547 19.7188 14.6797 19.3047 15.3984 19.0078C16.1172 18.6953 16.8828 18.5391 17.6953 18.5391C18.5078 18.5391 19.2734 18.6953 19.9922 19.0078C20.7109 19.3047 21.3359 19.7188 21.8672 20.25C22.3984 20.7812 22.8125 21.4062 23.1094 22.125C23.4219 22.8438 23.5781 23.6094 23.5781 24.4219V25.2656H21.8906C21.8906 24.6875 21.7812 24.1406 21.5625 23.625C21.3438 23.1094 21.0469 22.6641 20.6719 22.2891C20.2969 21.8984 19.8516 21.5938 19.3359 21.375C18.8203 21.1562 18.2734 21.0469 17.6953 21.0469ZM26.9531 45.4922C25.0938 45.4922 23.3438 45.1328 21.7031 44.4141C20.0781 43.7109 18.6562 42.75 17.4375 41.5312C16.2188 40.3125 15.25 38.8906 14.5312 37.2656C13.8281 35.625 13.4766 33.875 13.4766 32.0156H40.4297C40.4297 33.875 40.0703 35.625 39.3516 37.2656C38.6484 38.8906 37.6875 40.3125 36.4688 41.5312C35.25 42.75 33.8203 43.7109 32.1797 44.4141C30.5547 45.1328 28.8125 45.4922 26.9531 45.4922ZM26.9531 43.8047C27.8125 43.8047 28.6641 43.7109 29.5078 43.5234C30.3516 43.3359 31.1641 43.0547 31.9453 42.6797C31.3047 41.9453 30.5547 41.3906 29.6953 41.0156C28.8359 40.625 27.9219 40.4297 26.9531 40.4297C25.9844 40.4297 25.0703 40.625 24.2109 41.0156C23.3516 41.3906 22.6016 41.9453 21.9609 42.6797C22.7422 43.0547 23.5547 43.3359 24.3984 43.5234C25.2422 43.7109 26.0938 43.8047 26.9531 43.8047ZM37.5938 37.0547C38.125 35.9766 38.4688 34.8594 38.625 33.7031H15.2812C15.4531 34.9062 15.7891 36.0234 16.2891 37.0547H37.5938Z" fill="black"/>
</svg>
