<svg width="54" height="54" viewBox="0 0 54 54" fill="none" xmlns="http://www.w3.org/2000/svg">
<path d="M26.9531 0C29.4375 0 31.8281 0.320313 34.125 0.960938C36.4219 1.60156 38.5625 2.50781 40.5469 3.67969C42.5469 4.85156 44.3672 6.25781 46.0078 7.89844C47.6484 9.53906 49.0547 11.3594 50.2266 13.3594C51.3984 15.3438 52.3047 17.4844 52.9453 19.7812C53.5859 22.0781 53.9062 24.4688 53.9062 26.9531C53.9062 29.4375 53.5859 31.8281 52.9453 34.125C52.3047 36.4219 51.3984 38.5703 50.2266 40.5703C49.0547 42.5547 47.6484 44.3672 46.0078 46.0078C44.3672 47.6484 42.5469 49.0547 40.5469 50.2266C38.5625 51.3984 36.4219 52.3047 34.125 52.9453C31.8281 53.5859 29.4375 53.9062 26.9531 53.9062C24.4688 53.9062 22.0781 53.5859 19.7812 52.9453C17.4844 52.3047 15.3359 51.3984 13.3359 50.2266C11.3516 49.0547 9.53906 47.6484 7.89844 46.0078C6.25781 44.3672 4.85156 42.5547 3.67969 40.5703C2.50781 38.5703 1.60156 36.4219 0.960938 34.125C0.320312 31.8281 0 29.4375 0 26.9531C0 24.4688 0.320312 22.0781 0.960938 19.7812C1.60156 17.4844 2.50781 15.3438 3.67969 13.3594C4.85156 11.3594 6.25781 9.53906 7.89844 7.89844C9.53906 6.25781 11.3516 4.85156 13.3359 3.67969C15.3359 2.50781 17.4844 1.60156 19.7812 0.960938C22.0781 0.320313 24.4688 0 26.9531 0ZM26.9531 50.5312C29.125 50.5312 31.2109 50.25 33.2109 49.6875C35.2266 49.125 37.1094 48.3281 38.8594 47.2969C40.6094 46.2812 42.1953 45.0625 43.6172 43.6406C45.0547 42.2031 46.2812 40.6094 47.2969 38.8594C48.3281 37.1094 49.125 35.2344 49.6875 33.2344C50.25 31.2188 50.5312 29.125 50.5312 26.9531C50.5312 24.7812 50.25 22.6953 49.6875 20.6953C49.125 18.6797 48.3281 16.7969 47.2969 15.0469C46.2812 13.2969 45.0547 11.7109 43.6172 10.2891C42.1953 8.85156 40.6094 7.625 38.8594 6.60938C37.1094 5.57812 35.2266 4.78125 33.2109 4.21875C31.2109 3.65625 29.125 3.375 26.9531 3.375C24.7812 3.375 22.6875 3.65625 20.6719 4.21875C18.6719 4.78125 16.7969 5.57812 15.0469 6.60938C13.2969 7.625 11.7031 8.85156 10.2656 10.2891C8.84375 11.7109 7.61719 13.2969 6.58594 15.0469C5.57031 16.7969 4.78125 18.6797 4.21875 20.6953C3.65625 22.6953 3.375 24.7812 3.375 26.9531C3.375 29.125 3.65625 31.2188 4.21875 33.2344C4.78125 35.2344 5.57031 37.1094 6.58594 38.8594C7.61719 40.6094 8.84375 42.2031 10.2656 43.6406C11.7031 45.0625 13.2969 46.2812 15.0469 47.2969C16.7969 48.3281 18.6719 49.125 20.6719 49.6875C22.6875 50.25 24.7812 50.5312 26.9531 50.5312ZM37.0547 32.0156C37.5234 32.0156 37.9219 32.1797 38.25 32.5078C38.5781 32.8359 38.7422 33.2344 38.7422 33.7031C38.7422 34.1562 38.5703 34.5469 38.2266 34.875C37.8984 35.2031 37.5078 35.3672 37.0547 35.3672H32.0156C31.2031 35.3672 30.3828 35.4609 29.5547 35.6484C28.7422 35.8203 27.9531 36.0781 27.1875 36.4219C26.4219 36.7656 25.6953 37.1797 25.0078 37.6641C24.3359 38.1484 23.7344 38.7031 23.2031 39.3281C22.9375 39.6406 22.6953 39.9688 22.4766 40.3125C22.2734 40.6406 22.0469 40.9609 21.7969 41.2734C21.5781 41.5391 21.3672 41.75 21.1641 41.9062C20.9766 42.0469 20.7031 42.1172 20.3438 42.1172C19.8906 42.1172 19.4922 41.9453 19.1484 41.6016C18.8047 41.2578 18.6328 40.8594 18.6328 40.4062C18.6328 40.1406 18.7109 39.8672 18.8672 39.5859C19.4766 38.4141 20.2578 37.3672 21.2109 36.4453C22.1797 35.5078 23.2422 34.7109 24.3984 34.0547C25.5703 33.3984 26.8047 32.8984 28.1016 32.5547C29.4141 32.1953 30.7188 32.0156 32.0156 32.0156H37.0547ZM20.2266 24.4219C20.2266 24.7656 20.1562 25.0938 20.0156 25.4062C19.8906 25.7031 19.7109 25.9688 19.4766 26.2031C19.2422 26.4375 18.9688 26.625 18.6562 26.7656C18.3594 26.8906 18.0391 26.9531 17.6953 26.9531C17.3359 26.9531 17 26.8906 16.6875 26.7656C16.3906 26.625 16.125 26.4453 15.8906 26.2266C15.6719 25.9922 15.4922 25.7266 15.3516 25.4297C15.2266 25.1172 15.1641 24.7812 15.1641 24.4219V21.0469C15.1641 20.7031 15.2266 20.375 15.3516 20.0625C15.4922 19.75 15.6797 19.4844 15.9141 19.2656C16.1484 19.0469 16.4141 18.875 16.7109 18.75C17.0234 18.6094 17.3516 18.5391 17.6953 18.5391C18.0391 18.5391 18.3594 18.6094 18.6562 18.75C18.9688 18.875 19.2422 19.0547 19.4766 19.2891C19.7109 19.5078 19.8906 19.7734 20.0156 20.0859C20.1562 20.3828 20.2266 20.7031 20.2266 21.0469V24.4219ZM36.2109 18.5391C36.5547 18.5391 36.875 18.6094 37.1719 18.75C37.4844 18.875 37.7578 19.0469 37.9922 19.2656C38.2266 19.4844 38.4062 19.75 38.5312 20.0625C38.6719 20.375 38.7422 20.7031 38.7422 21.0469V24.4219C38.7422 24.7812 38.6719 25.1172 38.5312 25.4297C38.4062 25.7266 38.2266 25.9922 37.9922 26.2266C37.7734 26.4453 37.5078 26.625 37.1953 26.7656C36.8828 26.8906 36.5547 26.9531 36.2109 26.9531C35.8516 26.9531 35.5156 26.8906 35.2031 26.7656C34.9062 26.625 34.6484 26.4375 34.4297 26.2031C34.2109 25.9688 34.0312 25.7031 33.8906 25.4062C33.7656 25.0938 33.7031 24.7656 33.7031 24.4219V21.0469C33.7031 20.7031 33.7656 20.3828 33.8906 20.0859C34.0312 19.7734 34.2109 19.5078 34.4297 19.2891C34.6641 19.0547 34.9297 18.875 35.2266 18.75C35.5391 18.6094 35.8672 18.5391 36.2109 18.5391Z" fill="black"/>
</svg>
