<svg width="54" height="54" viewBox="0 0 54 54" fill="none" xmlns="http://www.w3.org/2000/svg">
<path d="M26.9531 0C29.4375 0 31.8281 0.320313 34.125 0.960938C36.4219 1.60156 38.5625 2.50781 40.5469 3.67969C42.5469 4.85156 44.3672 6.25781 46.0078 7.89844C47.6484 9.53906 49.0547 11.3594 50.2266 13.3594C51.3984 15.3438 52.3047 17.4844 52.9453 19.7812C53.5859 22.0781 53.9062 24.4688 53.9062 26.9531C53.9062 29.4375 53.5859 31.8281 52.9453 34.125C52.3047 36.4219 51.3984 38.5703 50.2266 40.5703C49.0547 42.5547 47.6484 44.3672 46.0078 46.0078C44.3672 47.6484 42.5469 49.0547 40.5469 50.2266C38.5625 51.3984 36.4219 52.3047 34.125 52.9453C31.8281 53.5859 29.4375 53.9062 26.9531 53.9062C24.4688 53.9062 22.0781 53.5859 19.7812 52.9453C17.4844 52.3047 15.3359 51.3984 13.3359 50.2266C11.3516 49.0547 9.53906 47.6484 7.89844 46.0078C6.25781 44.3672 4.85156 42.5547 3.67969 40.5703C2.50781 38.5703 1.60156 36.4219 0.960938 34.125C0.320312 31.8281 0 29.4375 0 26.9531C0 24.4688 0.320312 22.0781 0.960938 19.7812C1.60156 17.4844 2.50781 15.3438 3.67969 13.3594C4.85156 11.3594 6.25781 9.53906 7.89844 7.89844C9.53906 6.25781 11.3516 4.85156 13.3359 3.67969C15.3359 2.50781 17.4844 1.60156 19.7812 0.960938C22.0781 0.320313 24.4688 0 26.9531 0ZM26.9531 50.5312C29.125 50.5312 31.2109 50.25 33.2109 49.6875C35.2266 49.125 37.1094 48.3281 38.8594 47.2969C40.6094 46.2812 42.1953 45.0625 43.6172 43.6406C45.0547 42.2031 46.2812 40.6094 47.2969 38.8594C48.3281 37.1094 49.125 35.2344 49.6875 33.2344C50.25 31.2188 50.5312 29.125 50.5312 26.9531C50.5312 24.7812 50.25 22.6953 49.6875 20.6953C49.125 18.6797 48.3281 16.7969 47.2969 15.0469C46.2812 13.2969 45.0547 11.7109 43.6172 10.2891C42.1953 8.85156 40.6094 7.625 38.8594 6.60938C37.1094 5.57812 35.2266 4.78125 33.2109 4.21875C31.2109 3.65625 29.125 3.375 26.9531 3.375C24.7812 3.375 22.6875 3.65625 20.6719 4.21875C18.6719 4.78125 16.7969 5.57812 15.0469 6.60938C13.2969 7.625 11.7031 8.85156 10.2656 10.2891C8.84375 11.7109 7.61719 13.2969 6.58594 15.0469C5.57031 16.7969 4.78125 18.6797 4.21875 20.6953C3.65625 22.6953 3.375 24.7812 3.375 26.9531C3.375 29.125 3.65625 31.2188 4.21875 33.2344C4.78125 35.2344 5.57031 37.1094 6.58594 38.8594C7.61719 40.6094 8.84375 42.2031 10.2656 43.6406C11.7031 45.0625 13.2969 46.2812 15.0469 47.2969C16.7969 48.3281 18.6719 49.125 20.6719 49.6875C22.6875 50.25 24.7812 50.5312 26.9531 50.5312ZM16.8516 39.5625C16.8516 39.2344 16.9141 38.9766 17.0391 38.7891C17.1797 38.5859 17.3672 38.375 17.6016 38.1562C18.1328 37.6875 18.7891 37.2812 19.5703 36.9375C20.3516 36.5938 21.1719 36.3047 22.0312 36.0703C22.8906 35.8359 23.75 35.6641 24.6094 35.5547C25.4688 35.4453 26.25 35.3906 26.9531 35.3906C27.6562 35.3906 28.4375 35.4453 29.2969 35.5547C30.1562 35.6641 31.0156 35.8359 31.875 36.0703C32.7344 36.3047 33.5469 36.5938 34.3125 36.9375C35.0938 37.2812 35.7578 37.6875 36.3047 38.1562C36.5391 38.375 36.7188 38.5859 36.8438 38.7891C36.9844 38.9766 37.0547 39.2344 37.0547 39.5625C37.0547 40.0312 36.8906 40.4297 36.5625 40.7578C36.2344 41.0859 35.8359 41.25 35.3672 41.25C35.1797 41.25 35.0156 41.2266 34.875 41.1797C34.75 41.1172 34.6016 41.0469 34.4297 40.9688L34.1016 40.7812C33.4766 40.4688 32.8906 40.1875 32.3438 39.9375C31.8125 39.6875 31.2656 39.4766 30.7031 39.3047C30.1562 39.1172 29.5781 38.9766 28.9688 38.8828C28.375 38.7891 27.7031 38.7422 26.9531 38.7422C26.1406 38.7422 25.4219 38.7969 24.7969 38.9062C24.1875 39.0156 23.6016 39.1719 23.0391 39.375C22.4922 39.5781 21.9375 39.8125 21.375 40.0781C20.8125 40.3438 20.1797 40.6406 19.4766 40.9688C19.3203 41.0469 19.1641 41.1172 19.0078 41.1797C18.8672 41.2266 18.7109 41.25 18.5391 41.25C18.0859 41.25 17.6875 41.0859 17.3438 40.7578C17.0156 40.4141 16.8516 40.0156 16.8516 39.5625ZM23.5781 25.2656C23.5781 25.9688 23.4453 26.625 23.1797 27.2344C22.9141 27.8438 22.5547 28.3828 22.1016 28.8516C21.6484 29.3047 21.1172 29.6641 20.5078 29.9297C19.8984 30.1953 19.2422 30.3281 18.5391 30.3281H16.8516C16.1484 30.3281 15.4922 30.1953 14.8828 29.9297C14.2734 29.6641 13.7344 29.3047 13.2656 28.8516C12.8125 28.3828 12.4531 27.8438 12.1875 27.2344C11.9219 26.625 11.7891 25.9688 11.7891 25.2656H13.4766C13.4766 25.7344 13.6406 26.1328 13.9688 26.4609C14.2969 26.7891 14.6953 26.9531 15.1641 26.9531H20.2031C20.6719 26.9531 21.0703 26.7891 21.3984 26.4609C21.7266 26.1328 21.8906 25.7344 21.8906 25.2656H23.5781ZM40.4297 25.2656H42.1172C42.1172 25.9688 41.9844 26.625 41.7188 27.2344C41.4531 27.8438 41.0859 28.3828 40.6172 28.8516C40.1641 29.3047 39.6328 29.6641 39.0234 29.9297C38.4141 30.1953 37.7578 30.3281 37.0547 30.3281H35.3672C34.6641 30.3281 34.0078 30.1953 33.3984 29.9297C32.7891 29.6641 32.2578 29.3047 31.8047 28.8516C31.3516 28.3828 30.9922 27.8438 30.7266 27.2344C30.4609 26.625 30.3281 25.9688 30.3281 25.2656H32.0156C32.0156 25.7188 32.1719 26.1172 32.4844 26.4609C32.8125 26.7891 33.2109 26.9531 33.6797 26.9531H38.7422C39.2109 26.9531 39.6094 26.7891 39.9375 26.4609C40.2656 26.1328 40.4297 25.7344 40.4297 25.2656ZM13.4766 20.2266C13.4766 19.7578 13.6406 19.3594 13.9688 19.0312L20.7188 12.2812C21.0469 11.9531 21.4375 11.7891 21.8906 11.7891C22.3438 11.7891 22.7344 11.9609 23.0625 12.3047C23.4062 12.6328 23.5781 13.0234 23.5781 13.4766C23.5781 13.9453 23.4141 14.3438 23.0859 14.6719L16.3594 21.3984C16.0312 21.7266 15.6328 21.8906 15.1641 21.8906C14.7109 21.8906 14.3125 21.7266 13.9688 21.3984C13.6406 21.0703 13.4766 20.6797 13.4766 20.2266ZM31.9922 11.7891C32.4609 11.7891 32.8594 11.9531 33.1875 12.2812L39.9375 19.0312C40.2656 19.3594 40.4297 19.7578 40.4297 20.2266C40.4297 20.6797 40.2578 21.0703 39.9141 21.3984C39.5859 21.7266 39.1953 21.8906 38.7422 21.8906C38.2734 21.8906 37.875 21.7266 37.5469 21.3984L30.8203 14.6719C30.4922 14.3438 30.3281 13.9453 30.3281 13.4766C30.3281 13.0234 30.4922 12.6328 30.8203 12.3047C31.1484 11.9609 31.5391 11.7891 31.9922 11.7891Z" fill="black"/>
</svg>
