<svg width="54" height="54" viewBox="0 0 54 54" fill="none" xmlns="http://www.w3.org/2000/svg">
<path d="M26.9531 0C29.4375 0 31.8281 0.320313 34.125 0.960938C36.4219 1.60156 38.5625 2.50781 40.5469 3.67969C42.5469 4.85156 44.3672 6.25781 46.0078 7.89844C47.6484 9.53906 49.0547 11.3594 50.2266 13.3594C51.3984 15.3438 52.3047 17.4844 52.9453 19.7812C53.5859 22.0781 53.9062 24.4688 53.9062 26.9531C53.9062 29.4375 53.5859 31.8281 52.9453 34.125C52.3047 36.4219 51.3984 38.5703 50.2266 40.5703C49.0547 42.5547 47.6484 44.3672 46.0078 46.0078C44.3672 47.6484 42.5469 49.0547 40.5469 50.2266C38.5625 51.3984 36.4219 52.3047 34.125 52.9453C31.8281 53.5859 29.4375 53.9062 26.9531 53.9062C24.4688 53.9062 22.0781 53.5859 19.7812 52.9453C17.4844 52.3047 15.3359 51.3984 13.3359 50.2266C11.3516 49.0547 9.53906 47.6484 7.89844 46.0078C6.25781 44.3672 4.85156 42.5547 3.67969 40.5703C2.50781 38.5703 1.60156 36.4219 0.960938 34.125C0.320312 31.8281 0 29.4375 0 26.9531C0 24.4688 0.320312 22.0781 0.960938 19.7812C1.60156 17.4844 2.50781 15.3438 3.67969 13.3594C4.85156 11.3594 6.25781 9.53906 7.89844 7.89844C9.53906 6.25781 11.3516 4.85156 13.3359 3.67969C15.3359 2.50781 17.4844 1.60156 19.7812 0.960938C22.0781 0.320313 24.4688 0 26.9531 0ZM26.9531 50.5312C29.125 50.5312 31.2109 50.25 33.2109 49.6875C35.2266 49.125 37.1094 48.3281 38.8594 47.2969C40.6094 46.2812 42.1953 45.0625 43.6172 43.6406C45.0547 42.2031 46.2812 40.6094 47.2969 38.8594C48.3281 37.1094 49.125 35.2344 49.6875 33.2344C50.25 31.2188 50.5312 29.125 50.5312 26.9531C50.5312 24.7812 50.25 22.6953 49.6875 20.6953C49.125 18.6797 48.3281 16.7969 47.2969 15.0469C46.2812 13.2969 45.0547 11.7109 43.6172 10.2891C42.1953 8.85156 40.6094 7.625 38.8594 6.60938C37.1094 5.57812 35.2266 4.78125 33.2109 4.21875C31.2109 3.65625 29.125 3.375 26.9531 3.375C24.7812 3.375 22.6875 3.65625 20.6719 4.21875C18.6719 4.78125 16.7969 5.57812 15.0469 6.60938C13.2969 7.625 11.7031 8.85156 10.2656 10.2891C8.84375 11.7109 7.61719 13.2969 6.58594 15.0469C5.57031 16.7969 4.78125 18.6797 4.21875 20.6953C3.65625 22.6953 3.375 24.7812 3.375 26.9531C3.375 29.125 3.65625 31.2188 4.21875 33.2344C4.78125 35.2344 5.57031 37.1094 6.58594 38.8594C7.61719 40.6094 8.84375 42.2031 10.2656 43.6406C11.7031 45.0625 13.2969 46.2812 15.0469 47.2969C16.7969 48.3281 18.6719 49.125 20.6719 49.6875C22.6875 50.25 24.7812 50.5312 26.9531 50.5312ZM17.6953 25.2656C17.3359 25.2656 17 25.2031 16.6875 25.0781C16.3906 24.9375 16.125 24.7578 15.8906 24.5391C15.6719 24.3047 15.4922 24.0391 15.3516 23.7422C15.2266 23.4297 15.1641 23.0938 15.1641 22.7344V19.3828C15.1641 19.0391 15.2266 18.7109 15.3516 18.3984C15.4922 18.0859 15.6719 17.8203 15.8906 17.6016C16.125 17.3672 16.3906 17.1875 16.6875 17.0625C17 16.9219 17.3359 16.8516 17.6953 16.8516C18.0391 16.8516 18.3594 16.9219 18.6562 17.0625C18.9688 17.1875 19.2422 17.3672 19.4766 17.6016C19.7109 17.8359 19.8906 18.1094 20.0156 18.4219C20.1562 18.7188 20.2266 19.0391 20.2266 19.3828V22.7344C20.2266 23.0781 20.1562 23.4062 20.0156 23.7188C19.8906 24.0156 19.7109 24.2812 19.4766 24.5156C19.2422 24.75 18.9688 24.9375 18.6562 25.0781C18.3594 25.2031 18.0391 25.2656 17.6953 25.2656ZM36.2109 16.8516C36.5547 16.8516 36.8828 16.9219 37.1953 17.0625C37.5078 17.1875 37.7734 17.3672 37.9922 17.6016C38.2266 17.8203 38.4062 18.0859 38.5312 18.3984C38.6719 18.7109 38.7422 19.0391 38.7422 19.3828V22.7344C38.7422 23.0938 38.6719 23.4297 38.5312 23.7422C38.4062 24.0391 38.2266 24.3047 37.9922 24.5391C37.7734 24.7578 37.5078 24.9375 37.1953 25.0781C36.8828 25.2031 36.5547 25.2656 36.2109 25.2656C35.8516 25.2656 35.5156 25.2031 35.2031 25.0781C34.9062 24.9375 34.6484 24.75 34.4297 24.5156C34.2109 24.2812 34.0312 24.0156 33.8906 23.7188C33.7656 23.4062 33.7031 23.0781 33.7031 22.7344V19.3828C33.7031 19.0391 33.7656 18.7188 33.8906 18.4219C34.0312 18.1094 34.2109 17.8359 34.4297 17.6016C34.6484 17.3672 34.9062 17.1875 35.2031 17.0625C35.5156 16.9219 35.8516 16.8516 36.2109 16.8516ZM26.9531 37.0547C28.2031 37.0547 29.5 36.8906 30.8438 36.5625C32.1875 36.2188 33.3984 35.7188 34.4766 35.0625C34.6641 34.9531 34.8594 34.8203 35.0625 34.6641C35.2812 34.5078 35.5 34.3594 35.7188 34.2188C35.9531 34.0625 36.1797 33.9375 36.3984 33.8438C36.6328 33.7344 36.8594 33.6797 37.0781 33.6797C37.5312 33.6797 37.9219 33.8516 38.25 34.1953C38.5781 34.5234 38.7422 34.9141 38.7422 35.3672C38.7422 35.6797 38.6797 35.9375 38.5547 36.1406C38.4453 36.3281 38.2812 36.5234 38.0625 36.7266C37.4531 37.3359 36.6875 37.875 35.7656 38.3438C34.8594 38.7969 33.8906 39.1797 32.8594 39.4922C31.8281 39.8047 30.7969 40.0391 29.7656 40.1953C28.7344 40.3516 27.7969 40.4297 26.9531 40.4297C26.1094 40.4297 25.1719 40.3516 24.1406 40.1953C23.1094 40.0391 22.0781 39.8047 21.0469 39.4922C20.0156 39.1797 19.0391 38.7969 18.1172 38.3438C17.2109 37.875 16.4531 37.3359 15.8438 36.7266C15.625 36.5234 15.4531 36.3281 15.3281 36.1406C15.2188 35.9375 15.1641 35.6797 15.1641 35.3672C15.1641 34.9141 15.3281 34.5234 15.6562 34.1953C16 33.8672 16.3984 33.7031 16.8516 33.7031C17.0547 33.7031 17.2734 33.7578 17.5078 33.8672C17.7422 33.9609 17.9688 34.0781 18.1875 34.2188C18.4219 34.3594 18.6406 34.5078 18.8438 34.6641C19.0625 34.8203 19.2578 34.9531 19.4297 35.0625C20.5078 35.7344 21.7109 36.2344 23.0391 36.5625C24.3828 36.8906 25.6875 37.0547 26.9531 37.0547Z" fill="black"/>
</svg>
